<mxfile host="65bd71144e">
    <diagram name="Page-1" id="WaM49-__qORbt76QNIv5">
        <mxGraphModel dx="667" dy="1688" grid="1" gridSize="10" guides="1" tooltips="1" connect="1" arrows="1" fold="1" page="1" pageScale="1" pageWidth="827" pageHeight="1169" math="0" shadow="0">
            <root>
                <mxCell id="0"/>
                <mxCell id="1" parent="0"/>
                <mxCell id="ymr8tdjdf7WEonuPHIle-1" value="" style="whiteSpace=wrap;html=1;aspect=fixed;" parent="1" vertex="1">
                    <mxGeometry y="-410" width="1670" height="1670" as="geometry"/>
                </mxCell>
                <mxCell id="ymr8tdjdf7WEonuPHIle-18" style="edgeStyle=orthogonalEdgeStyle;rounded=0;orthogonalLoop=1;jettySize=auto;html=1;exitX=0.5;exitY=1;exitDx=0;exitDy=0;entryX=0.159;entryY=0;entryDx=0;entryDy=0;entryPerimeter=0;" parent="1" source="ymr8tdjdf7WEonuPHIle-2" target="ymr8tdjdf7WEonuPHIle-16" edge="1">
                    <mxGeometry relative="1" as="geometry"/>
                </mxCell>
                <mxCell id="ymr8tdjdf7WEonuPHIle-2" value="&lt;div style=&quot;font-style: normal; font-variant-caps: normal; font-weight: normal; letter-spacing: normal; text-align: start; text-indent: 0px; text-transform: none; word-spacing: 0px; -webkit-text-stroke-width: 0px; text-decoration: none; color: rgb(221, 221, 221); background-color: rgb(36, 39, 42); line-height: 18px;&quot;&gt;&lt;div&gt;&lt;font style=&quot;font-size: 18px;&quot; face=&quot;Verdana&quot;&gt;&lt;span style=&quot;color: rgb(0, 230, 115);&quot;&gt;log&lt;/span&gt;&lt;span style=&quot;color: rgb(221, 221, 221);&quot;&gt;(&lt;/span&gt;&lt;span style=&quot;color: rgb(195, 232, 141);&quot;&gt;&quot;First&quot;&lt;/span&gt;&lt;span style=&quot;color: rgb(221, 221, 221);&quot;&gt;);&lt;/span&gt;&lt;/font&gt;&lt;/div&gt;&lt;div&gt;&lt;font face=&quot;Verdana&quot; size=&quot;3&quot;&gt;&lt;span style=&quot;color: rgb(0, 230, 115);&quot;&gt;readFile&lt;/span&gt;&lt;span style=&quot;color: rgb(221, 221, 221);&quot;&gt;(&lt;/span&gt;&lt;span style=&quot;color: rgb(195, 232, 141);&quot;&gt;&quot;./doc.md&quot;&lt;/span&gt;&lt;span style=&quot;color: rgb(221, 221, 221);&quot;&gt;, (&lt;/span&gt;&lt;span style=&quot;color: rgb(255, 184, 108);&quot;&gt;err&lt;/span&gt;&lt;span style=&quot;color: rgb(221, 221, 221);&quot;&gt;, &lt;/span&gt;&lt;span style=&quot;color: rgb(255, 184, 108);&quot;&gt;data&lt;/span&gt;&lt;span style=&quot;color: rgb(221, 221, 221);&quot;&gt;) &lt;/span&gt;&lt;span style=&quot;color: rgb(255, 105, 180);&quot;&gt;=&amp;gt;&lt;/span&gt;&lt;span style=&quot;color: rgb(221, 221, 221);&quot;&gt; {&lt;/span&gt;&lt;/font&gt;&lt;/div&gt;&lt;div&gt;&lt;font face=&quot;Verdana&quot; size=&quot;3&quot;&gt;&lt;span style=&quot;color: rgb(221, 221, 221);&quot;&gt;    &lt;/span&gt;&lt;span style=&quot;color: rgb(255, 105, 180);&quot;&gt;if&lt;/span&gt;&lt;span style=&quot;color: rgb(221, 221, 221);&quot;&gt; (&lt;/span&gt;&lt;span style=&quot;color: rgb(255, 184, 108);&quot;&gt;err&lt;/span&gt;&lt;span style=&quot;color: rgb(221, 221, 221);&quot;&gt;) &lt;/span&gt;&lt;span style=&quot;color: rgb(0, 230, 115);&quot;&gt;log&lt;/span&gt;&lt;span style=&quot;color: rgb(221, 221, 221);&quot;&gt;(&lt;/span&gt;&lt;span style=&quot;color: rgb(255, 184, 108);&quot;&gt;err&lt;/span&gt;&lt;span style=&quot;color: rgb(221, 221, 221);&quot;&gt;);&lt;/span&gt;&lt;/font&gt;&lt;/div&gt;&lt;div&gt;&lt;font face=&quot;Verdana&quot; size=&quot;3&quot;&gt;&lt;span style=&quot;color: rgb(221, 221, 221);&quot;&gt;    &lt;/span&gt;&lt;span style=&quot;color: rgb(0, 230, 115);&quot;&gt;log&lt;/span&gt;&lt;span style=&quot;color: rgb(221, 221, 221);&quot;&gt;(&lt;/span&gt;&lt;span style=&quot;color: rgb(255, 184, 108);&quot;&gt;data&lt;/span&gt;&lt;span style=&quot;color: rgb(221, 221, 221);&quot;&gt;.&lt;/span&gt;&lt;span style=&quot;color: rgb(0, 230, 115);&quot;&gt;toString&lt;/span&gt;&lt;span style=&quot;color: rgb(221, 221, 221);&quot;&gt;(&lt;/span&gt;&lt;span style=&quot;color: rgb(195, 232, 141);&quot;&gt;&quot;utf-8&quot;&lt;/span&gt;&lt;span style=&quot;color: rgb(221, 221, 221);&quot;&gt;));&lt;/span&gt;&lt;/font&gt;&lt;/div&gt;&lt;div&gt;&lt;span style=&quot;color: rgb(221, 221, 221);&quot;&gt;&lt;font face=&quot;Verdana&quot; size=&quot;3&quot;&gt;});&lt;/font&gt;&lt;/span&gt;&lt;/div&gt;&lt;div&gt;&lt;font face=&quot;Verdana&quot; size=&quot;3&quot;&gt;&lt;span style=&quot;color: rgb(0, 230, 115);&quot;&gt;log&lt;/span&gt;&lt;span style=&quot;color: rgb(221, 221, 221);&quot;&gt;(&lt;/span&gt;&lt;span style=&quot;color: rgb(195, 232, 141);&quot;&gt;&quot;second&quot;&lt;/span&gt;&lt;span style=&quot;color: rgb(221, 221, 221);&quot;&gt;);&lt;/span&gt;&lt;/font&gt;&lt;/div&gt;&lt;/div&gt;" style="rounded=0;whiteSpace=wrap;html=1;" parent="1" vertex="1">
                    <mxGeometry x="90" y="-40" width="460" height="640" as="geometry"/>
                </mxCell>
                <mxCell id="ymr8tdjdf7WEonuPHIle-21" style="edgeStyle=orthogonalEdgeStyle;rounded=0;orthogonalLoop=1;jettySize=auto;html=1;entryX=0.452;entryY=0;entryDx=0;entryDy=0;entryPerimeter=0;" parent="1" source="ymr8tdjdf7WEonuPHIle-4" target="ymr8tdjdf7WEonuPHIle-16" edge="1">
                    <mxGeometry relative="1" as="geometry"/>
                </mxCell>
                <mxCell id="ymr8tdjdf7WEonuPHIle-4" value="&lt;font color=&quot;#33ff33&quot; style=&quot;font-size: 36px; background-color: rgb(8, 8, 8);&quot;&gt;readFile()&lt;/font&gt;" style="rounded=0;whiteSpace=wrap;html=1;" parent="1" vertex="1">
                    <mxGeometry x="620" y="-40" width="250" height="640" as="geometry"/>
                </mxCell>
                <mxCell id="ymr8tdjdf7WEonuPHIle-20" style="edgeStyle=orthogonalEdgeStyle;rounded=0;orthogonalLoop=1;jettySize=auto;html=1;entryX=0.834;entryY=0;entryDx=0;entryDy=0;entryPerimeter=0;strokeColor=#FF1F1F;strokeWidth=6;flowAnimation=1;" parent="1" source="ymr8tdjdf7WEonuPHIle-5" target="ymr8tdjdf7WEonuPHIle-16" edge="1">
                    <mxGeometry relative="1" as="geometry"/>
                </mxCell>
                <mxCell id="ymr8tdjdf7WEonuPHIle-5" value="" style="rounded=0;whiteSpace=wrap;html=1;" parent="1" vertex="1">
                    <mxGeometry x="1070" y="-40" width="460" height="640" as="geometry"/>
                </mxCell>
                <mxCell id="ymr8tdjdf7WEonuPHIle-6" value="&lt;font style=&quot;font-size: 48px;&quot;&gt;V8&lt;/font&gt;" style="text;html=1;strokeColor=none;fillColor=none;align=center;verticalAlign=middle;whiteSpace=wrap;rounded=0;" parent="1" vertex="1">
                    <mxGeometry x="220" width="60" height="30" as="geometry"/>
                </mxCell>
                <mxCell id="ymr8tdjdf7WEonuPHIle-8" value="&lt;font style=&quot;font-size: 48px;&quot;&gt;Event Loop&lt;/font&gt;" style="text;html=1;strokeColor=none;fillColor=none;align=center;verticalAlign=middle;whiteSpace=wrap;rounded=0;" parent="1" vertex="1">
                    <mxGeometry x="680" width="60" height="30" as="geometry"/>
                </mxCell>
                <mxCell id="ymr8tdjdf7WEonuPHIle-9" value="&lt;font style=&quot;font-size: 48px;&quot;&gt;Libuv&lt;/font&gt;" style="text;html=1;strokeColor=none;fillColor=none;align=center;verticalAlign=middle;whiteSpace=wrap;rounded=0;" parent="1" vertex="1">
                    <mxGeometry x="1140" width="60" height="30" as="geometry"/>
                </mxCell>
                <mxCell id="ymr8tdjdf7WEonuPHIle-13" value="" style="shape=image;html=1;verticalAlign=top;verticalLabelPosition=bottom;labelBackgroundColor=#ffffff;imageAspect=0;aspect=fixed;image=https://cdn4.iconfinder.com/data/icons/ionicons/512/icon-loop-128.png" parent="1" vertex="1">
                    <mxGeometry x="670" y="410" width="128" height="128" as="geometry"/>
                </mxCell>
                <mxCell id="ymr8tdjdf7WEonuPHIle-15" value="&lt;font style=&quot;font-size: 72px;&quot;&gt;Node.js&lt;/font&gt;" style="text;html=1;strokeColor=none;fillColor=none;align=center;verticalAlign=middle;whiteSpace=wrap;rounded=0;" parent="1" vertex="1">
                    <mxGeometry x="750" y="-270" width="60" height="30" as="geometry"/>
                </mxCell>
                <mxCell id="ymr8tdjdf7WEonuPHIle-16" value="" style="rounded=0;whiteSpace=wrap;html=1;" parent="1" vertex="1">
                    <mxGeometry x="90" y="680" width="1450" height="180" as="geometry"/>
                </mxCell>
                <mxCell id="ymr8tdjdf7WEonuPHIle-17" value="&lt;font style=&quot;font-size: 36px;&quot;&gt;Operating System&lt;/font&gt;" style="text;html=1;strokeColor=none;fillColor=none;align=center;verticalAlign=middle;whiteSpace=wrap;rounded=0;" parent="1" vertex="1">
                    <mxGeometry x="640" y="755" width="360" height="30" as="geometry"/>
                </mxCell>
                <mxCell id="ymr8tdjdf7WEonuPHIle-31" style="edgeStyle=orthogonalEdgeStyle;rounded=0;orthogonalLoop=1;jettySize=auto;html=1;endArrow=halfCircle;endFill=0;flowAnimation=1;" parent="1" source="ymr8tdjdf7WEonuPHIle-30" target="ymr8tdjdf7WEonuPHIle-26" edge="1">
                    <mxGeometry relative="1" as="geometry"/>
                </mxCell>
                <mxCell id="ymr8tdjdf7WEonuPHIle-35" style="edgeStyle=orthogonalEdgeStyle;rounded=0;orthogonalLoop=1;jettySize=auto;html=1;entryX=0.924;entryY=1.006;entryDx=0;entryDy=0;entryPerimeter=0;shape=link;" parent="1" source="ymr8tdjdf7WEonuPHIle-26" target="ymr8tdjdf7WEonuPHIle-16" edge="1">
                    <mxGeometry relative="1" as="geometry"/>
                </mxCell>
                <mxCell id="ymr8tdjdf7WEonuPHIle-26" value="&lt;font style=&quot;font-size: 18px;&quot;&gt;Network Card&lt;/font&gt;" style="rounded=0;whiteSpace=wrap;html=1;" parent="1" vertex="1">
                    <mxGeometry x="1320" y="930" width="220" height="110" as="geometry"/>
                </mxCell>
                <mxCell id="ymr8tdjdf7WEonuPHIle-27" value="&lt;font style=&quot;font-size: 18px;&quot;&gt;Storage&lt;/font&gt;" style="rounded=0;whiteSpace=wrap;html=1;" parent="1" vertex="1">
                    <mxGeometry x="950" y="940" width="220" height="110" as="geometry"/>
                </mxCell>
                <mxCell id="ymr8tdjdf7WEonuPHIle-33" style="edgeStyle=orthogonalEdgeStyle;rounded=0;orthogonalLoop=1;jettySize=auto;html=1;entryX=0.378;entryY=1.039;entryDx=0;entryDy=0;entryPerimeter=0;shape=link;width=-4;" parent="1" target="ymr8tdjdf7WEonuPHIle-16" edge="1">
                    <mxGeometry relative="1" as="geometry">
                        <mxPoint x="640" y="950" as="sourcePoint"/>
                    </mxGeometry>
                </mxCell>
                <mxCell id="ymr8tdjdf7WEonuPHIle-28" value="&lt;font style=&quot;font-size: 18px;&quot;&gt;RAM&lt;/font&gt;" style="rounded=0;whiteSpace=wrap;html=1;" parent="1" vertex="1">
                    <mxGeometry x="530" y="950" width="220" height="110" as="geometry"/>
                </mxCell>
                <mxCell id="ymr8tdjdf7WEonuPHIle-32" style="edgeStyle=orthogonalEdgeStyle;rounded=0;orthogonalLoop=1;jettySize=auto;html=1;entryX=0.076;entryY=1.006;entryDx=0;entryDy=0;entryPerimeter=0;shape=link;" parent="1" source="ymr8tdjdf7WEonuPHIle-29" target="ymr8tdjdf7WEonuPHIle-16" edge="1">
                    <mxGeometry relative="1" as="geometry"/>
                </mxCell>
                <mxCell id="ymr8tdjdf7WEonuPHIle-29" value="&lt;font style=&quot;font-size: 18px;&quot;&gt;CPU&lt;/font&gt;" style="rounded=0;whiteSpace=wrap;html=1;" parent="1" vertex="1">
                    <mxGeometry x="90" y="940" width="220" height="110" as="geometry"/>
                </mxCell>
                <mxCell id="ymr8tdjdf7WEonuPHIle-30" value="" style="outlineConnect=0;dashed=0;verticalLabelPosition=bottom;verticalAlign=top;align=center;html=1;shape=mxgraph.aws3.internet_3;fillColor=#D2D3D3;gradientColor=none;" parent="1" vertex="1">
                    <mxGeometry x="1360" y="1130" width="140" height="90" as="geometry"/>
                </mxCell>
                <mxCell id="ymr8tdjdf7WEonuPHIle-37" value="&lt;font style=&quot;font-size: 18px;&quot;&gt;is a stack which runs the events one by one&amp;nbsp;&lt;/font&gt;" style="text;html=1;strokeColor=none;fillColor=none;align=center;verticalAlign=middle;whiteSpace=wrap;rounded=0;" parent="1" vertex="1">
                    <mxGeometry x="670" y="100" width="140" height="30" as="geometry"/>
                </mxCell>
                <mxCell id="ymr8tdjdf7WEonuPHIle-38" value="" style="endArrow=classic;html=1;rounded=0;entryX=0.16;entryY=0.5;entryDx=0;entryDy=0;entryPerimeter=0;strokeColor=#FF1F1F;strokeWidth=7;flowAnimation=1;" parent="1" target="ymr8tdjdf7WEonuPHIle-4" edge="1">
                    <mxGeometry width="50" height="50" relative="1" as="geometry">
                        <mxPoint x="460" y="280" as="sourcePoint"/>
                        <mxPoint x="970" y="520" as="targetPoint"/>
                    </mxGeometry>
                </mxCell>
                <mxCell id="ymr8tdjdf7WEonuPHIle-39" value="" style="endArrow=classic;html=1;rounded=0;strokeColor=#FF331C;strokeWidth=6;entryX=0;entryY=0.464;entryDx=0;entryDy=0;entryPerimeter=0;flowAnimation=1;" parent="1" target="ymr8tdjdf7WEonuPHIle-5" edge="1">
                    <mxGeometry width="50" height="50" relative="1" as="geometry">
                        <mxPoint x="820" y="257" as="sourcePoint"/>
                        <mxPoint x="960" y="260" as="targetPoint"/>
                    </mxGeometry>
                </mxCell>
                <mxCell id="ymr8tdjdf7WEonuPHIle-41" value="" style="endArrow=classic;html=1;rounded=0;entryX=0.064;entryY=-0.027;entryDx=0;entryDy=0;entryPerimeter=0;strokeColor=#FF4517;strokeWidth=6;flowAnimation=1;" parent="1" target="ymr8tdjdf7WEonuPHIle-27" edge="1">
                    <mxGeometry width="50" height="50" relative="1" as="geometry">
                        <mxPoint x="964" y="860" as="sourcePoint"/>
                        <mxPoint x="960" y="550" as="targetPoint"/>
                    </mxGeometry>
                </mxCell>
                <mxCell id="ymr8tdjdf7WEonuPHIle-42" value="" style="endArrow=classic;html=1;rounded=0;entryX=0.73;entryY=1.006;entryDx=0;entryDy=0;entryPerimeter=0;exitX=0.9;exitY=-0.045;exitDx=0;exitDy=0;exitPerimeter=0;strokeColor=#FF370F;strokeWidth=6;flowAnimation=1;" parent="1" source="ymr8tdjdf7WEonuPHIle-27" target="ymr8tdjdf7WEonuPHIle-16" edge="1">
                    <mxGeometry width="50" height="50" relative="1" as="geometry">
                        <mxPoint x="1149" y="930" as="sourcePoint"/>
                        <mxPoint x="974" y="947" as="targetPoint"/>
                        <Array as="points"/>
                    </mxGeometry>
                </mxCell>
                <mxCell id="ymr8tdjdf7WEonuPHIle-46" value="" style="endArrow=classic;html=1;rounded=0;strokeWidth=6;strokeColor=#FF531F;flowAnimation=1;" parent="1" edge="1">
                    <mxGeometry width="50" height="50" relative="1" as="geometry">
                        <mxPoint x="1190" y="680" as="sourcePoint"/>
                        <mxPoint x="1190" y="600" as="targetPoint"/>
                    </mxGeometry>
                </mxCell>
                <mxCell id="ymr8tdjdf7WEonuPHIle-47" value="" style="endArrow=classic;html=1;rounded=0;strokeColor=#FF331C;strokeWidth=6;flowAnimation=1;" parent="1" edge="1">
                    <mxGeometry width="50" height="50" relative="1" as="geometry">
                        <mxPoint x="1070" y="300" as="sourcePoint"/>
                        <mxPoint x="820" y="300" as="targetPoint"/>
                        <Array as="points">
                            <mxPoint x="910" y="300"/>
                        </Array>
                    </mxGeometry>
                </mxCell>
                <mxCell id="ymr8tdjdf7WEonuPHIle-48" value="" style="endArrow=classic;html=1;rounded=0;strokeWidth=6;strokeColor=#FF681C;flowAnimation=1;" parent="1" edge="1">
                    <mxGeometry width="50" height="50" relative="1" as="geometry">
                        <mxPoint x="630" y="310" as="sourcePoint"/>
                        <mxPoint x="470" y="310" as="targetPoint"/>
                        <Array as="points">
                            <mxPoint x="560" y="310"/>
                        </Array>
                    </mxGeometry>
                </mxCell>
            </root>
        </mxGraphModel>
    </diagram>
</mxfile>